<?xml version="1.0" encoding="utf-8"?>
<!-- Generator: Adobe Illustrator 19.0.0, SVG Export Plug-In . SVG Version: 6.00 Build 0)  -->
<svg version="1.1" id="Layer_1" xmlns="http://www.w3.org/2000/svg" xmlns:xlink="http://www.w3.org/1999/xlink" x="0px" y="0px"
	 viewBox="0 0 216.5 101" style="enable-background:new 0 0 216.5 101;" xml:space="preserve">
<style type="text/css">
	.st0{fill:#D81F27;}
	.st1{fill:#FFFFFF;}
	.st2{font-family:'OmnesSemibold-Roman';}
	.st3{font-size:31.4516px;}
	.st4{font-size:18.4855px;}
</style>
<rect id="XMLID_3_" class="st0" width="216.5" height="101"/>
<text id="XMLID_1_" transform="matrix(1 0 0 1 52.6037 52.7843)" class="st1 st2 st3">PERONI</text>
<text id="XMLID_2_" transform="matrix(1 0 0 1 79.8336 72.3106)" class="st1 st2 st4">ITALIA </text>
<g id="XMLID_4_">
	<path id="XMLID_15_" class="st1" d="M40.7,66c0,0,8.4-0.2,16.8-0.4c2.1,0,4.2-0.1,6.2-0.1c1,0,1.9,0,2.8,0c0.9,0,1.8,0.1,2.5,0.1
		c0.8,0,1.5,0.1,2.2,0.1c0.6,0,1.2,0.1,1.7,0.1c0.9,0.1,1.4,0.1,1.4,0.1v0.1c0,0-0.5,0.1-1.4,0.1c-0.5,0-1,0.1-1.7,0.1
		c-0.6,0-1.4,0.1-2.2,0.1c-0.8,0-1.6,0.1-2.5,0.1c-0.9,0-1.9,0-2.8,0c-2,0-4.1-0.1-6.2-0.1C49.1,66.3,40.7,66.1,40.7,66L40.7,66z"/>
</g>
<g id="XMLID_6_">
	<path id="XMLID_13_" class="st1" d="M172,66.1c0,0-8.4,0.2-16.8,0.4c-2.1,0-4.2,0.1-6.2,0.1c-1,0-1.9,0-2.8,0
		c-0.9,0-1.8-0.1-2.5-0.1c-0.8,0-1.5-0.1-2.2-0.1c-0.6,0-1.2-0.1-1.7-0.1c-0.9-0.1-1.4-0.1-1.4-0.1V66c0,0,0.5-0.1,1.4-0.1
		c0.5,0,1-0.1,1.7-0.1c0.6,0,1.4-0.1,2.2-0.1c0.8,0,1.6-0.1,2.5-0.1c0.9,0,1.9,0,2.8,0c2,0,4.1,0.1,6.2,0.1
		C163.6,65.7,172,66,172,66.1L172,66.1z"/>
</g>
</svg>
